<svg width="246" height="149" viewBox="0 0 246 149" fill="none" xmlns="http://www.w3.org/2000/svg">
<path d="M242.741 98.9418C239.096 90.5509 233.11 86.9979 228.733 85.4939C226.472 84.7152 220.433 82.8073 215.76 81.3423L212.7 80.3883C212.573 80.3445 212.441 80.2958 212.299 80.252C211.775 80.0865 211.119 79.7896 210.972 79.3224C210.84 78.8941 211.09 78.1981 211.666 77.4145C212.323 76.7185 213.186 75.8862 214.244 74.9274C214.56 74.6402 214.858 74.3628 215.089 74.1292C221.732 68.3908 225.712 63.3923 227.61 58.4034C229.201 54.2177 229.366 50.0952 228.152 44.6149C227.624 42.2348 226.354 39.7575 225.003 37.1341C222.624 32.5103 220.164 27.7308 221.675 23.1654C224.555 14.4629 218.049 9.26971 214.806 7.29852C213.777 4.7238 211.685 2.6504 208.876 1.43849C205.401 -0.0605913 201.067 -0.226074 195.997 0.95664C189.501 2.47519 184.94 6.14987 182.433 11.8882C178.335 21.2672 181.097 33.5421 183.491 38.0345C183.793 38.6039 184.392 38.9106 185.02 38.8132C185.643 38.7159 186.13 38.2389 186.257 37.6013C186.923 34.243 189.288 26.2414 196.842 24.4941C210.51 21.3305 213.592 19.3836 214.867 15.6943C215.16 17.7726 215.198 20.2402 214.655 22.961C213.72 27.6431 214.556 30.3736 215.051 32.0041C215.16 32.3545 215.287 32.778 215.306 32.9727C215.075 33.0943 214.504 33.0311 214.074 32.9775C213.182 32.8753 212.068 32.7439 211.336 33.6297C211.114 33.8974 210.765 34.6664 209.622 37.3823C209.405 37.8933 209.164 38.4774 209.112 38.5747C209.051 38.6964 208.985 38.8376 208.909 38.9933C208.574 39.7136 208.012 40.9158 207.271 41.0326C206.147 41.2127 204.858 40.4194 203.499 39.5774C201.785 38.5163 199.845 37.319 197.748 37.9371C194.958 38.7646 192.683 42.5804 193.953 48.0316C194.854 51.8912 199.339 54.8942 203.678 57.7999C207.465 60.3357 211.383 62.9591 212.096 65.7236C212.318 66.59 212.384 67.5245 212.299 68.5028C212.072 69.8072 211.265 72.5181 208.385 76.2366C208.055 76.6503 207.677 77.0932 207.285 77.5167L207.233 77.5702C205.524 79.4246 203.758 81.3471 204.245 83.0068C204.476 83.7904 205.132 84.3112 206.204 84.5643C206.53 84.6422 206.988 84.686 207.62 84.7444C210.873 85.0462 218.488 85.7567 223.455 93.1305C228.549 101.234 228.634 116.464 200.114 143.019L198.438 144.576H217.719C221.444 139.008 224.366 133.961 226.623 129.395H233.322C231.047 136.94 228.327 142.926 227.553 144.576H241.881L242.051 143.909C247.037 124.499 247.273 109.367 242.741 98.9418ZM225.815 88.9301C232.269 91.938 235.305 97.5011 236.311 103.984H233.421C232.921 92.5464 225.815 88.9301 225.815 88.9301ZM234.72 124.261H228.974C231.807 117.525 233.081 111.976 233.383 107.44H236.665C236.938 112.91 236.051 118.8 234.72 124.261Z" fill="url(#paint0_linear)"/>
<path d="M24.4946 142.447L25.5123 142.17C26.4397 141.983 27.2707 141.519 28.0114 140.875C28.7039 140.182 29.1194 139.207 29.2158 138.189V109.543H35.2799V137.731C35.2799 140.556 34.214 143.145 32.2689 145.138C30.7875 146.529 28.6136 147.686 26.5782 148.149L25.3256 148.475L24.4946 142.447Z" fill="url(#paint1_linear)"/>
<path d="M40.0674 137.075C37.9838 134.901 36.8276 132.077 36.8276 129.204C36.8276 126.29 37.9838 123.465 40.0674 121.334C42.1991 119.298 44.9753 118.142 47.9381 118.142C50.9912 118.142 53.7733 119.298 55.7606 121.334C57.8924 123.465 59.0486 126.241 59.0486 129.204C59.0486 132.167 57.8924 134.943 55.7606 137.075C53.677 139.159 50.9009 140.315 47.9381 140.315C45.0656 140.321 42.2413 139.159 40.0674 137.075ZM42.2895 129.21C42.2895 132.402 44.8368 134.997 47.9381 134.997C51.0876 134.997 53.6348 132.408 53.6348 129.21C53.6348 126.013 51.0876 123.423 47.9381 123.423C44.8368 123.423 42.2895 126.013 42.2895 129.21Z" fill="url(#paint2_linear)"/>
<path d="M63.5711 137.539C61.6742 135.732 60.6565 133.281 60.6565 130.643V118.606H66.4917V130.643C66.4917 132.817 68.2983 134.576 70.5626 134.576C72.8328 134.576 74.6816 132.817 74.6816 130.643V118.606H80.5169V130.643C80.5169 133.233 79.451 135.69 77.5541 137.539C75.7053 139.345 73.2484 140.315 70.5626 140.315C67.8768 140.321 65.3777 139.345 63.5711 137.539Z" fill="url(#paint3_linear)"/>
<path d="M82.5162 139.809V118.606H88.3514V120.316C90.0195 118.648 92.5186 118.094 94.1867 118.094H95.5778L94.1867 123.881H93.3075C90.5735 123.881 88.3575 126.013 88.3575 128.554V139.803H82.5162V139.809Z" fill="url(#paint4_linear)"/>
<path d="M112.307 139.809V128.47C112.307 125.97 110.314 124.025 107.814 124.025C105.406 124.025 103.322 126.019 103.322 128.47V139.809H97.5349V118.606H103.328V120.135C104.761 118.702 106.291 118.19 107.82 118.19C110.597 118.19 113.192 119.256 115.131 121.153C117.076 123.146 118.142 125.736 118.142 128.464V139.803H112.307V139.809Z" fill="url(#paint5_linear)"/>
<path d="M130.162 140.321C128.819 140.321 127.428 139.996 126.133 139.393C124.929 138.888 123.821 138.051 122.803 136.985C121.183 135.226 120.214 132.914 119.979 130.505C119.931 130.089 119.888 129.674 119.888 129.21C119.888 128.283 120.027 127.313 120.262 126.338C120.677 124.483 121.557 122.773 122.809 121.478C123.736 120.46 124.802 119.671 126.139 119.027C127.392 118.425 128.777 118.148 130.21 118.148C131.691 118.148 133.034 118.425 134.281 119.027C135.672 119.678 136.78 120.509 137.611 121.478C138.815 122.773 139.743 124.441 140.207 126.338C140.435 127.217 140.532 128.144 140.532 129.21C140.532 129.584 140.532 129.951 140.532 130.276H124.977L125.025 130.601C125.627 133.474 127.801 135.557 130.21 135.557H130.258C131.601 135.467 133.083 134.63 133.962 133.889L134.474 133.474L138.316 136.804L137.623 137.406C137.117 137.87 136.467 138.424 135.774 138.797H135.726C134.058 139.767 132.252 140.279 130.216 140.327H130.162V140.321ZM125.627 126.151L125.441 126.524H135.022L134.835 126.151C133.769 124.158 132.011 122.959 130.204 122.959C128.397 122.959 126.597 124.206 125.627 126.151Z" fill="url(#paint6_linear)"/>
<path d="M145.428 146.59L148.228 139.857L139.755 118.612H145.958L151.233 131.806L156.604 118.612H162.759L151.486 146.596H145.428V146.59Z" fill="url(#paint7_linear)"/>
<path d="M29.4205 101.076C27.5236 99.2691 26.5059 96.8181 26.5059 94.1805V82.1426H32.3412V94.1805C32.3412 96.3545 34.1478 98.1129 36.412 98.1129C38.6823 98.1129 40.5311 96.3545 40.5311 94.1805V82.1426H46.3663V94.1805C46.3663 96.77 45.3004 99.2269 43.4035 101.076C41.5548 102.882 39.0978 103.852 36.412 103.852C33.7262 103.852 31.2271 102.876 29.4205 101.076Z" fill="url(#paint8_linear)"/>
<path d="M48.1609 103.34V82.1426H53.9962V83.8529C55.6642 82.1848 58.1634 81.6308 59.8314 81.6308H61.2225L59.8314 87.4179H58.9462C56.2122 87.4179 53.9962 89.5496 53.9962 92.0909V103.34H48.1609Z" fill="url(#paint9_linear)"/>
<path d="M63.1435 103.34V82.1426H68.9788V83.8529C70.6469 82.1848 73.146 81.6308 74.8141 81.6308H76.2052L74.8141 87.4179H73.9349C71.2009 87.4179 68.9848 89.5496 68.9848 92.0909V103.34H63.1435Z" fill="url(#paint10_linear)"/>
<path d="M78.4393 100.612C76.3557 98.438 75.1995 95.6138 75.1995 92.7413C75.1995 89.8266 76.3557 87.0023 78.4393 84.8706C80.5711 82.8352 83.3472 81.6789 86.31 81.6789C89.3631 81.6789 92.1453 82.8352 94.1325 84.8706C96.2643 87.0023 97.4205 89.7785 97.4205 92.7413C97.4205 95.7041 96.2643 98.4802 94.1325 100.612C92.0489 102.696 89.2728 103.852 86.31 103.852C83.4375 103.852 80.6132 102.696 78.4393 100.612ZM80.6614 92.7413C80.6614 95.9329 83.2087 98.5284 86.31 98.5284C89.4595 98.5284 92.0008 95.9389 92.0008 92.7413C92.0008 89.5436 89.4535 86.9542 86.31 86.9542C83.2027 86.9542 80.6614 89.5496 80.6614 92.7413Z" fill="url(#paint11_linear)"/>
<path d="M103.34 113.987C102.461 113.523 101.672 112.782 101.305 112.457L100.564 111.716L104.731 108.061L105.333 108.573C106.586 109.5 108.158 110.145 109.452 110.241C112.602 110.193 115.191 107.507 115.191 104.267V101.582L114.962 101.81C113.343 103.382 111.813 103.617 110.103 103.707H109.314C106.441 103.617 103.9 102.551 101.907 100.558C99.8233 98.426 98.6671 95.6499 98.6671 92.7353C98.6671 89.8206 99.8233 87.0445 101.907 84.9127C104.039 82.8291 106.815 81.7211 109.729 81.7211C112 81.7211 113.571 82.3233 114.962 83.7144L115.191 83.901V82.1426H120.792V104.315C120.792 107.369 119.587 110.193 117.413 112.325C115.33 114.499 112.506 115.655 109.452 115.655C107.23 115.655 105.099 115.101 103.34 113.987ZM104.267 92.7413C104.267 95.7944 106.767 98.3417 109.729 98.3417C112.692 98.3417 115.191 95.7944 115.191 92.7413C115.191 89.6881 112.692 87.0927 109.729 87.0927C106.767 87.0927 104.267 89.6881 104.267 92.7413Z" fill="url(#paint12_linear)"/>
<path d="M125.519 100.564C123.435 98.432 122.279 95.6559 122.279 92.7413C122.279 89.8266 123.435 87.0505 125.519 84.9187C127.603 82.8352 130.379 81.7271 133.342 81.7271C135.287 81.7271 137.045 82.4196 138.575 83.8107L138.803 83.9974V82.1486H144.404V103.352H138.803V101.684L138.575 101.913C136.907 103.533 135.01 103.761 133.342 103.761C130.427 103.761 127.651 102.647 125.519 100.564ZM127.88 92.7413C127.88 95.7944 130.379 98.3417 133.342 98.3417C136.304 98.3417 138.803 95.7944 138.803 92.7413C138.803 89.7303 136.304 87.1409 133.342 87.1409C130.379 87.1409 127.88 89.7303 127.88 92.7413Z" fill="url(#paint13_linear)"/>
<path d="M149.516 100.612L149.468 100.564C147.433 98.4802 146.277 95.7041 146.277 92.7413C146.277 89.7785 147.433 86.9542 149.468 84.8706C151.552 82.8352 154.328 81.6789 157.339 81.6789C160.392 81.6789 163.174 82.787 165.162 84.8706C165.625 85.3343 165.993 85.7498 166.318 86.1653L166.872 86.9963L162.337 90.3746L161.687 89.4954C160.579 88.014 158.953 87.0867 157.333 87.0867C154.418 87.0867 151.919 89.6761 151.919 92.7353C151.919 95.7944 154.418 98.3839 157.333 98.3839C158.953 98.3839 160.573 97.4565 161.687 95.8847L162.289 95.0537L167.01 98.432L166.318 99.3112C166.227 99.4497 166.089 99.5882 165.944 99.7268C165.716 100.004 165.433 100.329 165.156 100.606C163.12 102.641 160.344 103.798 157.333 103.798C154.376 103.804 151.6 102.647 149.516 100.612Z" fill="url(#paint14_linear)"/>
<path d="M172.575 110.121L175.375 103.388L166.902 82.1426H173.105L178.38 95.3367L183.751 82.1426H189.906L178.633 110.127H172.575V110.121Z" fill="url(#paint15_linear)"/>
<path d="M93.1509 87.5744L96.9026 83.8228V85.9907H98.6731V80.7997H93.4822V82.5702H95.6501L91.8984 86.3219L93.1509 87.5744Z" fill="url(#paint16_linear)"/>
<path d="M10.5537 106.899C7.24166 106.23 4.01991 104.617 1.20164 102.154L0.352539 101.395L4.2909 96.9205L5.14 97.6793C7.19951 99.4678 9.48183 100.678 11.716 101.124H11.7581C12.4266 101.256 13.101 101.347 13.7695 101.347C14.8896 101.347 15.9193 101.124 16.7684 100.72C17.8403 100.275 19.0929 99.2872 19.0929 97.4565C19.0929 96.4749 18.5991 95.7101 17.5693 95.0838C16.3168 94.3251 14.6186 93.9216 13.4081 93.6988C12.8722 93.6084 8.30755 92.669 6.20588 91.5068C4.82083 90.6577 3.7429 89.5858 2.98414 88.3272C2.22537 87.0325 1.86405 85.5992 1.86405 84.0335C1.86405 82.3353 2.40001 80.6311 3.42976 79.0654C4.41134 77.7707 5.75424 76.6927 7.36812 75.934C8.97599 75.1752 10.7705 74.7717 12.6915 74.7717C13.4503 74.7717 14.2572 74.8621 15.0642 74.9524C18.0149 75.4884 20.9236 76.8313 23.4769 78.9811L24.326 79.6977L20.5201 84.3045L19.671 83.5879C16.7624 81.2152 14.2572 80.6793 12.6494 80.6793C11.6196 80.6793 10.6802 80.9021 9.87326 81.2634C8.62069 81.8476 7.81375 82.9195 7.81375 83.9914C7.81375 84.9729 8.16904 85.5992 9.02416 86.1834C9.87326 86.7675 11.174 87.2131 13.2275 87.6587C13.4985 87.7009 13.8538 87.7912 14.2091 87.8816C16.0879 88.2369 18.5931 88.7788 20.3394 89.8026C21.863 90.6095 23.0252 91.7236 23.8322 93.0243C24.6391 94.319 25.0426 95.8426 25.0426 97.4565C25.0426 99.4678 24.5066 101.262 23.4347 102.78C22.4953 104.075 21.1102 105.195 19.2735 106.092C17.7078 106.899 15.9615 107.254 13.7695 107.254C12.7457 107.254 11.6738 107.122 10.5537 106.899Z" fill="url(#paint17_linear)"/>
<path d="M104.406 76.0725L107.206 69.3399L98.7333 48.0884H104.936L110.211 61.2826L115.583 48.0884H121.737L110.464 76.0725H104.406Z" fill="url(#paint18_linear)"/>
<path d="M70.0326 43.8369H75.9342L83.1184 56.7601L90.14 43.8369H96.0836L97.3663 71.3754H91.1336L90.3507 53.3757L84.654 64.1069H81.4322L75.4042 53.4962L74.6997 71.3693H68.756L70.0326 43.8369Z" fill="url(#paint19_linear)"/>
<defs>
<linearGradient id="paint0_linear" x1="0.352539" y1="148.475" x2="251.018" y2="148.475" gradientUnits="userSpaceOnUse">
<stop stop-color="#A84088"/>
<stop offset="0.182292" stop-color="#A11552"/>
<stop offset="0.359375" stop-color="#F53694"/>
<stop offset="0.53125" stop-color="#FC6D68"/>
<stop offset="0.713542" stop-color="#FEA94E"/>
<stop offset="0.864583" stop-color="#BADCC8"/>
<stop offset="1" stop-color="#6AC6E6"/>
</linearGradient>
<linearGradient id="paint1_linear" x1="0.352539" y1="148.475" x2="251.018" y2="148.475" gradientUnits="userSpaceOnUse">
<stop stop-color="#A84088"/>
<stop offset="0.182292" stop-color="#A11552"/>
<stop offset="0.359375" stop-color="#F53694"/>
<stop offset="0.53125" stop-color="#FC6D68"/>
<stop offset="0.713542" stop-color="#FEA94E"/>
<stop offset="0.864583" stop-color="#BADCC8"/>
<stop offset="1" stop-color="#6AC6E6"/>
</linearGradient>
<linearGradient id="paint2_linear" x1="0.352539" y1="148.475" x2="251.018" y2="148.475" gradientUnits="userSpaceOnUse">
<stop stop-color="#A84088"/>
<stop offset="0.182292" stop-color="#A11552"/>
<stop offset="0.359375" stop-color="#F53694"/>
<stop offset="0.53125" stop-color="#FC6D68"/>
<stop offset="0.713542" stop-color="#FEA94E"/>
<stop offset="0.864583" stop-color="#BADCC8"/>
<stop offset="1" stop-color="#6AC6E6"/>
</linearGradient>
<linearGradient id="paint3_linear" x1="0.352539" y1="148.475" x2="251.018" y2="148.475" gradientUnits="userSpaceOnUse">
<stop stop-color="#A84088"/>
<stop offset="0.182292" stop-color="#A11552"/>
<stop offset="0.359375" stop-color="#F53694"/>
<stop offset="0.53125" stop-color="#FC6D68"/>
<stop offset="0.713542" stop-color="#FEA94E"/>
<stop offset="0.864583" stop-color="#BADCC8"/>
<stop offset="1" stop-color="#6AC6E6"/>
</linearGradient>
<linearGradient id="paint4_linear" x1="0.352539" y1="148.475" x2="251.018" y2="148.475" gradientUnits="userSpaceOnUse">
<stop stop-color="#A84088"/>
<stop offset="0.182292" stop-color="#A11552"/>
<stop offset="0.359375" stop-color="#F53694"/>
<stop offset="0.53125" stop-color="#FC6D68"/>
<stop offset="0.713542" stop-color="#FEA94E"/>
<stop offset="0.864583" stop-color="#BADCC8"/>
<stop offset="1" stop-color="#6AC6E6"/>
</linearGradient>
<linearGradient id="paint5_linear" x1="0.352539" y1="148.475" x2="251.018" y2="148.475" gradientUnits="userSpaceOnUse">
<stop stop-color="#A84088"/>
<stop offset="0.182292" stop-color="#A11552"/>
<stop offset="0.359375" stop-color="#F53694"/>
<stop offset="0.53125" stop-color="#FC6D68"/>
<stop offset="0.713542" stop-color="#FEA94E"/>
<stop offset="0.864583" stop-color="#BADCC8"/>
<stop offset="1" stop-color="#6AC6E6"/>
</linearGradient>
<linearGradient id="paint6_linear" x1="0.352539" y1="148.475" x2="251.018" y2="148.475" gradientUnits="userSpaceOnUse">
<stop stop-color="#A84088"/>
<stop offset="0.182292" stop-color="#A11552"/>
<stop offset="0.359375" stop-color="#F53694"/>
<stop offset="0.53125" stop-color="#FC6D68"/>
<stop offset="0.713542" stop-color="#FEA94E"/>
<stop offset="0.864583" stop-color="#BADCC8"/>
<stop offset="1" stop-color="#6AC6E6"/>
</linearGradient>
<linearGradient id="paint7_linear" x1="0.352539" y1="148.475" x2="251.018" y2="148.475" gradientUnits="userSpaceOnUse">
<stop stop-color="#A84088"/>
<stop offset="0.182292" stop-color="#A11552"/>
<stop offset="0.359375" stop-color="#F53694"/>
<stop offset="0.53125" stop-color="#FC6D68"/>
<stop offset="0.713542" stop-color="#FEA94E"/>
<stop offset="0.864583" stop-color="#BADCC8"/>
<stop offset="1" stop-color="#6AC6E6"/>
</linearGradient>
<linearGradient id="paint8_linear" x1="0.352539" y1="148.475" x2="251.018" y2="148.475" gradientUnits="userSpaceOnUse">
<stop stop-color="#A84088"/>
<stop offset="0.182292" stop-color="#A11552"/>
<stop offset="0.359375" stop-color="#F53694"/>
<stop offset="0.53125" stop-color="#FC6D68"/>
<stop offset="0.713542" stop-color="#FEA94E"/>
<stop offset="0.864583" stop-color="#BADCC8"/>
<stop offset="1" stop-color="#6AC6E6"/>
</linearGradient>
<linearGradient id="paint9_linear" x1="0.352539" y1="148.475" x2="251.018" y2="148.475" gradientUnits="userSpaceOnUse">
<stop stop-color="#A84088"/>
<stop offset="0.182292" stop-color="#A11552"/>
<stop offset="0.359375" stop-color="#F53694"/>
<stop offset="0.53125" stop-color="#FC6D68"/>
<stop offset="0.713542" stop-color="#FEA94E"/>
<stop offset="0.864583" stop-color="#BADCC8"/>
<stop offset="1" stop-color="#6AC6E6"/>
</linearGradient>
<linearGradient id="paint10_linear" x1="0.352539" y1="148.475" x2="251.018" y2="148.475" gradientUnits="userSpaceOnUse">
<stop stop-color="#A84088"/>
<stop offset="0.182292" stop-color="#A11552"/>
<stop offset="0.359375" stop-color="#F53694"/>
<stop offset="0.53125" stop-color="#FC6D68"/>
<stop offset="0.713542" stop-color="#FEA94E"/>
<stop offset="0.864583" stop-color="#BADCC8"/>
<stop offset="1" stop-color="#6AC6E6"/>
</linearGradient>
<linearGradient id="paint11_linear" x1="0.352539" y1="148.475" x2="251.018" y2="148.475" gradientUnits="userSpaceOnUse">
<stop stop-color="#A84088"/>
<stop offset="0.182292" stop-color="#A11552"/>
<stop offset="0.359375" stop-color="#F53694"/>
<stop offset="0.53125" stop-color="#FC6D68"/>
<stop offset="0.713542" stop-color="#FEA94E"/>
<stop offset="0.864583" stop-color="#BADCC8"/>
<stop offset="1" stop-color="#6AC6E6"/>
</linearGradient>
<linearGradient id="paint12_linear" x1="0.352539" y1="148.475" x2="251.018" y2="148.475" gradientUnits="userSpaceOnUse">
<stop stop-color="#A84088"/>
<stop offset="0.182292" stop-color="#A11552"/>
<stop offset="0.359375" stop-color="#F53694"/>
<stop offset="0.53125" stop-color="#FC6D68"/>
<stop offset="0.713542" stop-color="#FEA94E"/>
<stop offset="0.864583" stop-color="#BADCC8"/>
<stop offset="1" stop-color="#6AC6E6"/>
</linearGradient>
<linearGradient id="paint13_linear" x1="0.352539" y1="148.475" x2="251.018" y2="148.475" gradientUnits="userSpaceOnUse">
<stop stop-color="#A84088"/>
<stop offset="0.182292" stop-color="#A11552"/>
<stop offset="0.359375" stop-color="#F53694"/>
<stop offset="0.53125" stop-color="#FC6D68"/>
<stop offset="0.713542" stop-color="#FEA94E"/>
<stop offset="0.864583" stop-color="#BADCC8"/>
<stop offset="1" stop-color="#6AC6E6"/>
</linearGradient>
<linearGradient id="paint14_linear" x1="0.352539" y1="148.475" x2="251.018" y2="148.475" gradientUnits="userSpaceOnUse">
<stop stop-color="#A84088"/>
<stop offset="0.182292" stop-color="#A11552"/>
<stop offset="0.359375" stop-color="#F53694"/>
<stop offset="0.53125" stop-color="#FC6D68"/>
<stop offset="0.713542" stop-color="#FEA94E"/>
<stop offset="0.864583" stop-color="#BADCC8"/>
<stop offset="1" stop-color="#6AC6E6"/>
</linearGradient>
<linearGradient id="paint15_linear" x1="0.352539" y1="148.475" x2="251.018" y2="148.475" gradientUnits="userSpaceOnUse">
<stop stop-color="#A84088"/>
<stop offset="0.182292" stop-color="#A11552"/>
<stop offset="0.359375" stop-color="#F53694"/>
<stop offset="0.53125" stop-color="#FC6D68"/>
<stop offset="0.713542" stop-color="#FEA94E"/>
<stop offset="0.864583" stop-color="#BADCC8"/>
<stop offset="1" stop-color="#6AC6E6"/>
</linearGradient>
<linearGradient id="paint16_linear" x1="0.352539" y1="148.475" x2="251.018" y2="148.475" gradientUnits="userSpaceOnUse">
<stop stop-color="#A84088"/>
<stop offset="0.182292" stop-color="#A11552"/>
<stop offset="0.359375" stop-color="#F53694"/>
<stop offset="0.53125" stop-color="#FC6D68"/>
<stop offset="0.713542" stop-color="#FEA94E"/>
<stop offset="0.864583" stop-color="#BADCC8"/>
<stop offset="1" stop-color="#6AC6E6"/>
</linearGradient>
<linearGradient id="paint17_linear" x1="0.352539" y1="148.475" x2="251.018" y2="148.475" gradientUnits="userSpaceOnUse">
<stop stop-color="#A84088"/>
<stop offset="0.182292" stop-color="#A11552"/>
<stop offset="0.359375" stop-color="#F53694"/>
<stop offset="0.53125" stop-color="#FC6D68"/>
<stop offset="0.713542" stop-color="#FEA94E"/>
<stop offset="0.864583" stop-color="#BADCC8"/>
<stop offset="1" stop-color="#6AC6E6"/>
</linearGradient>
<linearGradient id="paint18_linear" x1="0.352539" y1="148.475" x2="251.018" y2="148.475" gradientUnits="userSpaceOnUse">
<stop stop-color="#A84088"/>
<stop offset="0.182292" stop-color="#A11552"/>
<stop offset="0.359375" stop-color="#F53694"/>
<stop offset="0.53125" stop-color="#FC6D68"/>
<stop offset="0.713542" stop-color="#FEA94E"/>
<stop offset="0.864583" stop-color="#BADCC8"/>
<stop offset="1" stop-color="#6AC6E6"/>
</linearGradient>
<linearGradient id="paint19_linear" x1="0.352539" y1="148.475" x2="251.018" y2="148.475" gradientUnits="userSpaceOnUse">
<stop stop-color="#A84088"/>
<stop offset="0.182292" stop-color="#A11552"/>
<stop offset="0.359375" stop-color="#F53694"/>
<stop offset="0.53125" stop-color="#FC6D68"/>
<stop offset="0.713542" stop-color="#FEA94E"/>
<stop offset="0.864583" stop-color="#BADCC8"/>
<stop offset="1" stop-color="#6AC6E6"/>
</linearGradient>
</defs>
</svg>
