<svg width="220" height="23" viewBox="0 0 220 23" fill="none" xmlns="http://www.w3.org/2000/svg">
<path d="M0.443875 0.711296H3.51588V13.1913C3.51588 14.1513 3.60121 15.0366 3.77188 15.8473C3.94254 16.6366 4.23054 17.3193 4.63588 17.8953C5.06254 18.4713 5.61721 18.9193 6.29988 19.2393C7.00388 19.538 7.88921 19.6873 8.95588 19.6873C10.0012 19.6873 10.8652 19.538 11.5479 19.2393C12.2519 18.9193 12.8065 18.4713 13.2119 17.8953C13.6385 17.3193 13.9372 16.6366 14.1079 15.8473C14.2785 15.0366 14.3639 14.1513 14.3639 13.1913V0.711296H17.4359V13.9273C17.4359 15.1433 17.2652 16.2846 16.9239 17.3513C16.5825 18.3966 16.0599 19.314 15.3559 20.1033C14.6732 20.8713 13.7985 21.4793 12.7319 21.9273C11.6652 22.3753 10.4065 22.5993 8.95588 22.5993C7.50521 22.5993 6.24654 22.3753 5.17988 21.9273C4.11321 21.4793 3.22788 20.8713 2.52388 20.1033C1.81988 19.314 1.29721 18.3966 0.955875 17.3513C0.614542 16.2846 0.443875 15.1433 0.443875 13.9273V0.711296ZM22.6471 18.3113C23.1805 18.8446 23.8205 19.2713 24.5671 19.5913C25.3138 19.9113 26.1778 20.0713 27.1591 20.0713C28.1191 20.0713 28.9191 19.922 29.5591 19.6233C30.1991 19.3033 30.5191 18.8126 30.5191 18.1513C30.5191 17.81 30.4445 17.522 30.2951 17.2873C30.1671 17.0313 29.9325 16.8073 29.5911 16.6153C29.2711 16.4233 28.8338 16.2526 28.2791 16.1033C27.7458 15.9326 27.0738 15.7513 26.2631 15.5593C25.6871 15.4313 25.1111 15.2606 24.5351 15.0473C23.9805 14.834 23.4791 14.5566 23.0311 14.2153C22.5831 13.8526 22.2205 13.426 21.9431 12.9353C21.6658 12.4233 21.5271 11.8153 21.5271 11.1113C21.5271 10.386 21.6871 9.75663 22.0071 9.2233C22.3485 8.66863 22.7965 8.20996 23.3511 7.8473C23.9058 7.4633 24.5245 7.1753 25.2071 6.9833C25.9111 6.7913 26.6365 6.6953 27.3831 6.6953C28.6418 6.6953 29.7191 6.86596 30.6151 7.2073C31.5325 7.5273 32.3325 7.98596 33.0151 8.5833L31.4471 10.5673C30.9991 10.162 30.4338 9.82063 29.7511 9.5433C29.0898 9.26596 28.3111 9.1273 27.4151 9.1273C26.4978 9.1273 25.7618 9.27663 25.2071 9.5753C24.6525 9.87396 24.3751 10.3646 24.3751 11.0473C24.3751 11.6873 24.7378 12.1673 25.4631 12.4873C26.2098 12.786 27.1805 13.074 28.3751 13.3513C29.0791 13.522 29.7298 13.7246 30.3271 13.9593C30.9458 14.1726 31.4791 14.4606 31.9271 14.8233C32.3965 15.1646 32.7591 15.5913 33.0151 16.1033C33.2925 16.6153 33.4311 17.234 33.4311 17.9593C33.4311 18.706 33.2605 19.3673 32.9191 19.9433C32.5778 20.498 32.1191 20.9673 31.5431 21.3513C30.9671 21.7353 30.3058 22.0233 29.5591 22.2153C28.8125 22.4073 28.0338 22.5033 27.2231 22.5033C24.4071 22.5033 22.2951 21.746 20.8871 20.2313L22.6471 18.3113ZM50.3489 19.8793C50.1782 20.0713 49.9222 20.3166 49.5809 20.6153C49.2395 20.914 48.7915 21.202 48.2369 21.4793C47.7035 21.7566 47.0635 21.9913 46.3169 22.1833C45.5915 22.3966 44.7595 22.5033 43.8209 22.5033C42.6689 22.5033 41.6129 22.3113 40.6529 21.9273C39.6929 21.5433 38.8715 20.9993 38.1889 20.2953C37.5062 19.5913 36.9729 18.7486 36.5889 17.7673C36.2262 16.786 36.0449 15.698 36.0449 14.5033C36.0449 13.4153 36.2262 12.402 36.5889 11.4633C36.9515 10.5033 37.4635 9.68196 38.1249 8.9993C38.7862 8.2953 39.5649 7.74063 40.4609 7.3353C41.3782 6.92996 42.3809 6.7273 43.4689 6.7273C44.7489 6.7273 45.8475 6.97263 46.7649 7.4633C47.6822 7.95396 48.4289 8.60463 49.0049 9.4153C49.6022 10.226 50.0395 11.154 50.3169 12.1993C50.5942 13.2446 50.7329 14.3326 50.7329 15.4633H38.9889C39.0102 16.1246 39.1489 16.7326 39.4049 17.2873C39.6822 17.842 40.0449 18.322 40.4929 18.7273C40.9409 19.1326 41.4529 19.4526 42.0289 19.6873C42.6049 19.922 43.2129 20.0393 43.8529 20.0393C45.1115 20.0393 46.1462 19.826 46.9569 19.3993C47.7675 18.9726 48.3542 18.5566 48.7169 18.1513L50.3489 19.8793ZM47.7569 13.3193C47.6715 12.1673 47.2662 11.186 46.5409 10.3753C45.8155 9.56463 44.7915 9.1593 43.4689 9.1593C42.7862 9.1593 42.1675 9.27663 41.6129 9.5113C41.0795 9.74596 40.6209 10.0553 40.2369 10.4393C39.8529 10.8233 39.5542 11.2713 39.3409 11.7833C39.1275 12.274 39.0102 12.786 38.9889 13.3193H47.7569ZM55.0571 9.5753H52.3691V7.1753H55.0571V5.9593C55.0571 4.95663 55.1958 4.09263 55.4731 3.3673C55.7718 2.62063 56.1558 2.01263 56.6251 1.5433C57.1158 1.07396 57.6705 0.73263 58.2891 0.519297C58.9078 0.28463 59.5585 0.167297 60.2411 0.167297C61.0305 0.167297 61.7985 0.295297 62.5451 0.551296C63.3131 0.785964 64.0171 1.20196 64.6571 1.7993L63.2171 3.6553C62.4278 2.99396 61.5851 2.6633 60.6891 2.6633C59.8571 2.6633 59.1851 2.92996 58.6731 3.4633C58.1825 3.99663 57.9371 4.91396 57.9371 6.2153V7.1753H62.1931V9.5753H57.9371V22.0553H55.0571V9.5753ZM64.4036 7.1753H67.2836V15.9113C67.2836 17.3193 67.5716 18.3433 68.1476 18.9833C68.7236 19.602 69.5556 19.9113 70.6436 19.9113C71.4756 19.9113 72.1583 19.7406 72.6916 19.3993C73.2463 19.058 73.6943 18.6206 74.0356 18.0873C74.377 17.5326 74.6116 16.914 74.7396 16.2313C74.889 15.5273 74.9636 14.8126 74.9636 14.0873V7.1753H77.8436V18.8233C77.8436 19.4846 77.8436 20.0606 77.8436 20.5513C77.8436 21.0206 77.8543 21.522 77.8756 22.0553H75.1236L75.0276 19.8473C74.8356 20.1033 74.601 20.3806 74.3236 20.6793C74.0463 20.978 73.705 21.2553 73.2996 21.5113C72.8943 21.746 72.425 21.9486 71.8916 22.1193C71.3583 22.29 70.7503 22.3753 70.0676 22.3753C68.1263 22.3753 66.697 21.8206 65.7796 20.7113C64.8623 19.5806 64.4036 18.0446 64.4036 16.1033V7.1753ZM81.8434 0.711296H84.7234V22.0553H81.8434V0.711296ZM113.028 18.3113C112.794 18.6953 112.431 19.1326 111.94 19.6233C111.45 20.114 110.852 20.5833 110.148 21.0313C109.444 21.458 108.634 21.8206 107.716 22.1193C106.799 22.418 105.786 22.5673 104.676 22.5673C103.098 22.5673 101.658 22.29 100.356 21.7353C99.055 21.1806 97.935 20.4126 96.9964 19.4313C96.0577 18.4286 95.3217 17.2553 94.7884 15.9113C94.2764 14.546 94.0204 13.0633 94.0204 11.4633C94.0204 9.90596 94.2764 8.44463 94.7884 7.0793C95.3217 5.71396 96.0577 4.5193 96.9964 3.4953C97.935 2.4713 99.055 1.6713 100.356 1.0953C101.679 0.497964 103.14 0.199297 104.74 0.199297C105.871 0.199297 106.884 0.337964 107.78 0.615297C108.676 0.892631 109.455 1.24463 110.116 1.6713C110.799 2.07663 111.375 2.52463 111.844 3.0153C112.335 3.50596 112.73 3.9753 113.028 4.4233L110.852 6.2793C110.596 5.91663 110.287 5.5433 109.924 5.1593C109.583 4.75396 109.167 4.3913 108.676 4.0713C108.186 3.7513 107.62 3.48463 106.98 3.2713C106.34 3.05796 105.604 2.9513 104.772 2.9513C103.599 2.9513 102.543 3.1753 101.604 3.6233C100.687 4.0713 99.8977 4.6793 99.2364 5.4473C98.5964 6.2153 98.1057 7.1113 97.7644 8.1353C97.423 9.1593 97.2524 10.2473 97.2524 11.3993C97.2524 12.5513 97.423 13.6393 97.7644 14.6633C98.127 15.666 98.6284 16.5406 99.2684 17.2873C99.9084 18.034 100.687 18.6206 101.604 19.0473C102.522 19.474 103.546 19.6873 104.676 19.6873C105.636 19.6873 106.458 19.57 107.14 19.3353C107.844 19.0793 108.431 18.7806 108.9 18.4393C109.391 18.098 109.786 17.7566 110.084 17.4153C110.404 17.0526 110.671 16.754 110.884 16.5193L113.028 18.3113ZM122.668 22.5033C121.516 22.5033 120.46 22.3006 119.5 21.8953C118.54 21.4686 117.708 20.8926 117.004 20.1673C116.321 19.442 115.777 18.61 115.372 17.6713C114.988 16.7113 114.796 15.6873 114.796 14.5993C114.796 13.5113 114.988 12.498 115.372 11.5593C115.777 10.5993 116.321 9.75663 117.004 9.0313C117.708 8.30596 118.54 7.74063 119.5 7.3353C120.46 6.90863 121.516 6.6953 122.668 6.6953C123.798 6.6953 124.844 6.90863 125.804 7.3353C126.764 7.74063 127.596 8.30596 128.3 9.0313C129.004 9.75663 129.548 10.5993 129.932 11.5593C130.337 12.498 130.54 13.5113 130.54 14.5993C130.54 15.6873 130.337 16.7113 129.932 17.6713C129.548 18.61 129.004 19.442 128.3 20.1673C127.596 20.8926 126.764 21.4686 125.804 21.8953C124.844 22.3006 123.798 22.5033 122.668 22.5033ZM122.668 20.0073C123.436 20.0073 124.129 19.858 124.748 19.5593C125.366 19.2393 125.889 18.834 126.316 18.3433C126.742 17.8313 127.062 17.2553 127.276 16.6153C127.51 15.954 127.628 15.282 127.628 14.5993C127.628 13.938 127.51 13.2873 127.276 12.6473C127.062 11.986 126.732 11.3993 126.284 10.8873C125.857 10.3753 125.334 9.96996 124.716 9.6713C124.118 9.3513 123.436 9.1913 122.668 9.1913C121.9 9.1913 121.206 9.3513 120.588 9.6713C119.969 9.96996 119.446 10.3753 119.02 10.8873C118.593 11.378 118.262 11.954 118.028 12.6153C117.814 13.2553 117.708 13.9166 117.708 14.5993C117.708 15.282 117.814 15.9433 118.028 16.5833C118.262 17.2233 118.593 17.7993 119.02 18.3113C119.468 18.8233 119.99 19.2393 120.588 19.5593C121.206 19.858 121.9 20.0073 122.668 20.0073ZM133.812 10.4073C133.812 9.74596 133.812 9.18063 133.812 8.7113C133.812 8.22063 133.801 7.70863 133.78 7.1753H136.532L136.628 9.4153C136.82 9.1593 137.055 8.88196 137.332 8.5833C137.609 8.2633 137.951 7.9753 138.356 7.7193C138.761 7.4633 139.231 7.24996 139.764 7.0793C140.319 6.90863 140.937 6.8233 141.62 6.8233C143.561 6.8233 145.001 7.38863 145.94 8.5193C146.879 9.64996 147.348 11.186 147.348 13.1273V22.0553H144.468V13.3513C144.468 11.9646 144.169 10.9513 143.572 10.3113C142.975 9.64996 142.132 9.3193 141.044 9.3193C140.212 9.3193 139.519 9.48996 138.964 9.8313C138.409 10.1726 137.961 10.6206 137.62 11.1753C137.3 11.7086 137.065 12.3273 136.916 13.0313C136.767 13.714 136.692 14.418 136.692 15.1433V22.0553H133.812V10.4073ZM152.498 9.5753H149.81V7.1753H152.498V2.3113H155.378V7.1753H159.73V9.5753H155.378V16.9033C155.378 18.098 155.56 18.9193 155.922 19.3673C156.306 19.8153 156.84 20.0393 157.522 20.0393C158.077 20.0393 158.536 19.954 158.898 19.7833C159.261 19.6126 159.624 19.3566 159.986 19.0153L161.298 20.7753C160.68 21.3726 160.04 21.7993 159.378 22.0553C158.738 22.3326 157.97 22.4713 157.074 22.4713C155.496 22.4713 154.333 22.0446 153.586 21.1913C152.861 20.338 152.498 19.0046 152.498 17.1913V9.5753ZM172.78 15.0153C172.694 14.994 172.524 14.9726 172.268 14.9513C172.033 14.9086 171.756 14.8766 171.436 14.8553C171.116 14.834 170.774 14.8126 170.412 14.7913C170.049 14.77 169.697 14.7593 169.356 14.7593C168.545 14.7593 167.884 14.8553 167.372 15.0473C166.881 15.2393 166.486 15.4846 166.188 15.7833C165.91 16.0606 165.718 16.3806 165.612 16.7433C165.505 17.0846 165.452 17.4153 165.452 17.7353C165.452 18.546 165.729 19.1646 166.284 19.5913C166.838 19.9966 167.606 20.1993 168.588 20.1993C169.142 20.1993 169.665 20.1033 170.156 19.9113C170.668 19.7193 171.116 19.4633 171.5 19.1433C171.884 18.8233 172.193 18.45 172.428 18.0233C172.662 17.5966 172.78 17.1593 172.78 16.7113V15.0153ZM172.812 20.2633C172.257 21.01 171.521 21.5646 170.604 21.9273C169.708 22.29 168.78 22.4713 167.82 22.4713C167.201 22.4713 166.582 22.386 165.964 22.2153C165.366 22.066 164.812 21.81 164.3 21.4473C163.809 21.0633 163.404 20.5833 163.084 20.0073C162.785 19.41 162.636 18.6846 162.636 17.8313C162.636 16.2313 163.19 14.9513 164.3 13.9913C165.43 13.0313 167.052 12.5513 169.164 12.5513C169.505 12.5513 169.868 12.562 170.252 12.5833C170.636 12.6046 170.998 12.626 171.34 12.6473C171.681 12.6686 171.98 12.69 172.236 12.7113C172.492 12.7326 172.673 12.754 172.78 12.7753V12.2313C172.78 11.122 172.438 10.3326 171.756 9.8633C171.094 9.37263 170.188 9.1273 169.036 9.1273C167.905 9.1273 167.009 9.2873 166.348 9.6073C165.686 9.90596 165.132 10.2153 164.684 10.5353L163.34 8.5833C163.596 8.36996 163.905 8.15663 164.268 7.9433C164.63 7.72996 165.057 7.53796 165.548 7.3673C166.038 7.1753 166.593 7.02596 167.212 6.9193C167.83 6.7913 168.545 6.7273 169.356 6.7273C171.276 6.7273 172.78 7.19663 173.868 8.1353C174.977 9.05263 175.532 10.3646 175.532 12.0713V19.1113C175.532 19.666 175.532 20.21 175.532 20.7433C175.532 21.2553 175.542 21.6926 175.564 22.0553H172.876L172.812 20.2633ZM192.396 20.0073C191.735 20.754 190.914 21.362 189.932 21.8313C188.972 22.2793 187.852 22.5033 186.572 22.5033C185.378 22.5033 184.29 22.3113 183.308 21.9273C182.348 21.522 181.527 20.978 180.844 20.2953C180.183 19.5913 179.671 18.7593 179.308 17.7993C178.946 16.818 178.764 15.7513 178.764 14.5993C178.764 13.5113 178.956 12.4873 179.34 11.5273C179.724 10.5673 180.258 9.7353 180.94 9.0313C181.644 8.30596 182.466 7.74063 183.404 7.3353C184.364 6.90863 185.42 6.6953 186.572 6.6953C187.831 6.6953 188.94 6.9193 189.9 7.3673C190.86 7.8153 191.682 8.4233 192.364 9.1913L190.476 11.0153C190.028 10.4606 189.484 10.0233 188.844 9.7033C188.204 9.3833 187.447 9.2233 186.572 9.2233C185.804 9.2233 185.111 9.37263 184.492 9.6713C183.895 9.94863 183.383 10.3433 182.956 10.8553C182.551 11.346 182.231 11.922 181.996 12.5833C181.783 13.2233 181.676 13.8953 181.676 14.5993C181.676 15.282 181.783 15.954 181.996 16.6153C182.231 17.2553 182.551 17.8313 182.956 18.3433C183.383 18.834 183.895 19.2286 184.492 19.5273C185.111 19.826 185.804 19.9753 186.572 19.9753C187.447 19.9753 188.226 19.8153 188.908 19.4953C189.612 19.154 190.188 18.706 190.636 18.1513L192.396 20.0073ZM196.53 9.5753H193.842V7.1753H196.53V2.3113H199.41V7.1753H203.762V9.5753H199.41V16.9033C199.41 18.098 199.591 18.9193 199.954 19.3673C200.338 19.8153 200.871 20.0393 201.554 20.0393C202.108 20.0393 202.567 19.954 202.93 19.7833C203.292 19.6126 203.655 19.3566 204.018 19.0153L205.33 20.7753C204.711 21.3726 204.071 21.7993 203.41 22.0553C202.77 22.3326 202.002 22.4713 201.106 22.4713C199.527 22.4713 198.364 22.0446 197.618 21.1913C196.892 20.338 196.53 19.0046 196.53 17.1913V9.5753ZM208.491 18.3113C209.024 18.8446 209.664 19.2713 210.411 19.5913C211.158 19.9113 212.022 20.0713 213.003 20.0713C213.963 20.0713 214.763 19.922 215.403 19.6233C216.043 19.3033 216.363 18.8126 216.363 18.1513C216.363 17.81 216.288 17.522 216.139 17.2873C216.011 17.0313 215.776 16.8073 215.435 16.6153C215.115 16.4233 214.678 16.2526 214.123 16.1033C213.59 15.9326 212.918 15.7513 212.107 15.5593C211.531 15.4313 210.955 15.2606 210.379 15.0473C209.824 14.834 209.323 14.5566 208.875 14.2153C208.427 13.8526 208.064 13.426 207.787 12.9353C207.51 12.4233 207.371 11.8153 207.371 11.1113C207.371 10.386 207.531 9.75663 207.851 9.2233C208.192 8.66863 208.64 8.20996 209.195 7.8473C209.75 7.4633 210.368 7.1753 211.051 6.9833C211.755 6.7913 212.48 6.6953 213.227 6.6953C214.486 6.6953 215.563 6.86596 216.459 7.2073C217.376 7.5273 218.176 7.98596 218.859 8.5833L217.291 10.5673C216.843 10.162 216.278 9.82063 215.595 9.5433C214.934 9.26596 214.155 9.1273 213.259 9.1273C212.342 9.1273 211.606 9.27663 211.051 9.5753C210.496 9.87396 210.219 10.3646 210.219 11.0473C210.219 11.6873 210.582 12.1673 211.307 12.4873C212.054 12.786 213.024 13.074 214.219 13.3513C214.923 13.522 215.574 13.7246 216.171 13.9593C216.79 14.1726 217.323 14.4606 217.771 14.8233C218.24 15.1646 218.603 15.5913 218.859 16.1033C219.136 16.6153 219.275 17.234 219.275 17.9593C219.275 18.706 219.104 19.3673 218.763 19.9433C218.422 20.498 217.963 20.9673 217.387 21.3513C216.811 21.7353 216.15 22.0233 215.403 22.2153C214.656 22.4073 213.878 22.5033 213.067 22.5033C210.251 22.5033 208.139 21.746 206.731 20.2313L208.491 18.3113Z" fill="white"/>
</svg>
